# xmcd
#
# Track frame offsets:
#	150
#	14193
#	26679
#	44699
#	59725
#	74671
#	86953
#
# Disc length: 1348 seconds
#
# Revision: 0
# Processed by: cddbd v1.5.2PL0 Copyright (c) Steve Scherf et al.
# Submitted via: EasyCDDAExtractor 12.0.1.1
#
DISCID=71054207
DTITLE=Brandon Scott Sellner - Wrongs To Rights
DYEAR=2008
DGENRE=Blues
TTITLE0=Wrongs To Rights
TTITLE1=Come On, Come In
TTITLE2=Fly On
TTITLE3=Long Gone
TTITLE4=Sure Gonna Fall
TTITLE5=When I Wake Up This Morning
TTITLE6=Troubles On My Mind
EXTD=
EXTT0=
EXTT1=
EXTT2=
EXTT3=
EXTT4=
EXTT5=
EXTT6=
PLAYORDER=
